<svg width="11" height="11" viewBox="0 0 11 11" fill="none" xmlns="http://www.w3.org/2000/svg">
<g clip-path="url(#clip0_1_469)">
<path d="M10.0146 5.12446C9.89912 5.12446 9.78837 5.07858 9.70672 4.99693C9.62506 4.91527 9.57918 4.80452 9.57918 4.68904C9.57826 3.76549 9.21097 2.88002 8.55792 2.22697C7.90487 1.57392 7.01941 1.20663 6.09585 1.20571C5.98037 1.20571 5.86962 1.15983 5.78797 1.07818C5.70631 0.996519 5.66044 0.885769 5.66044 0.770289C5.66044 0.65481 5.70631 0.54406 5.78797 0.462403C5.86962 0.380747 5.98037 0.334873 6.09585 0.334873C7.25026 0.33614 8.35702 0.795289 9.17331 1.61158C9.9896 2.42787 10.4488 3.53463 10.45 4.68904C10.45 4.80452 10.4041 4.91527 10.3225 4.99693C10.2408 5.07858 10.1301 5.12446 10.0146 5.12446ZM8.70835 4.68904C8.70835 3.99616 8.43311 3.33166 7.94317 2.84172C7.45323 2.35178 6.78873 2.07654 6.09585 2.07654C5.98037 2.07654 5.86962 2.12241 5.78797 2.20407C5.70631 2.28573 5.66044 2.39648 5.66044 2.51196C5.66044 2.62744 5.70631 2.73819 5.78797 2.81984C5.86962 2.9015 5.98037 2.94737 6.09585 2.94737C6.55777 2.94737 7.00077 3.13087 7.3274 3.4575C7.65402 3.78412 7.83752 4.22712 7.83752 4.68904C7.83752 4.80452 7.88339 4.91527 7.96505 4.99693C8.04671 5.07858 8.15746 5.12446 8.27294 5.12446C8.38841 5.12446 8.49916 5.07858 8.58082 4.99693C8.66248 4.91527 8.70835 4.80452 8.70835 4.68904ZM9.65887 9.98545L10.0551 9.5287C10.3073 9.27569 10.4489 8.93302 10.4489 8.57579C10.4489 8.21855 10.3073 7.87589 10.0551 7.62288C10.0416 7.60938 8.99399 6.80342 8.99399 6.80342C8.74255 6.56409 8.40858 6.43082 8.06145 6.43131C7.71432 6.43179 7.38073 6.566 7.12997 6.80604L6.30006 7.50532C5.62263 7.22495 5.00726 6.81351 4.48929 6.29465C3.97132 5.77578 3.56095 5.1597 3.28175 4.48178L3.97842 3.65449C4.21865 3.40376 4.35301 3.07011 4.35358 2.72287C4.35414 2.37564 4.22087 2.04154 3.98147 1.79004C3.98147 1.79004 3.17464 0.743729 3.16114 0.730231C2.91272 0.480192 2.57589 0.33793 2.22344 0.334182C1.87099 0.330435 1.53122 0.465502 1.27753 0.710202L0.776802 1.14562C-2.18142 4.57757 4.18873 10.8985 7.73389 10.7849C8.09188 10.7869 8.44666 10.7173 8.77728 10.58C9.1079 10.4427 9.40766 10.2405 9.65887 9.98545V9.98545Z" fill="#002F70"/>
</g>
<defs>
<clipPath id="clip0_1_469">
<rect width="10.45" height="10.45" fill="white" transform="translate(0 0.335022)"/>
</clipPath>
</defs>
</svg>
